<svg width="1436" height="908" viewBox="0 0 1436 908" fill="none" xmlns="http://www.w3.org/2000/svg">
<g filter="url(#filter0_d)">
<path d="M354 597.5C353.197 597.251 340.261 588.511 340 588.347M340 588.347C338.8 587.594 341.34 588.462 329.089 597.5L30.5 802C22.6667 802.833 10.4 796.5 24 764.5C37.6 732.5 71.6667 666.5 87 637.5C95.8333 622.167 116.2 589.3 127 580.5C137.8 571.7 227.833 483.833 271.5 441C278.5 424.833 295.6 390.8 308 384C323.5 375.5 326.5 372.5 348 362C369.5 351.5 368 369.5 413 340.5C458 311.5 486 273.5 515 261.5C538.167 244.667 587.6 211 600 211C615.5 211 630.5 196.5 700.5 174.5C756.5 156.9 976.5 69.5 1079.5 28C1090.5 22.1667 1119.5 21.7 1147.5 66.5C1179.5 51.6667 1247.6 27.3 1264 48.5C1280.4 69.7 1364.5 165.667 1404.5 211C1416.5 242.5 1378 283.3 1338 242.5L1284.5 174.5C1280.67 164.833 1256.6 155.2 1191 194C1141.83 212.667 1039.1 248.5 1021.5 242.5C989.833 249.667 923.9 269.6 913.5 292C900.5 320 920.909 418.091 934.5 427.5C941 432 953.5 452.5 1033.5 471.5C1081.17 482.833 1179.4 507.9 1191 517.5C1205.5 529.5 1237 521.5 1225 589C1211.33 611.167 1198.3 660.1 1255.5 678.5C1287 691.833 1350.5 720.2 1352.5 727C1355 735.5 1380 753.5 1352.5 802C1325 850.5 1306.8 882.1 1264 872.5C1223 864.333 1131.6 837.1 1094 793.5C1064.17 762.833 993.6 683.1 950 609.5C920.833 576.5 832.7 511.9 713.5 517.5C687.333 530.833 616.8 565.5 544 597.5L380 631.5C373 633.333 360.2 630.8 365 606C369.8 581.2 350.333 583.898 340 588.347Z" stroke="black" stroke-width="50" stroke-linejoin="round"/>
</g>
<defs>
<filter id="filter0_d" x="-11.109" y="0.0661011" width="1446.86" height="907.152" filterUnits="userSpaceOnUse" color-interpolation-filters="sRGB">
<feFlood flood-opacity="0" result="BackgroundImageFix"/>
<feColorMatrix in="SourceAlpha" type="matrix" values="0 0 0 0 0 0 0 0 0 0 0 0 0 0 0 0 0 0 127 0"/>
<feOffset dy="4"/>
<feGaussianBlur stdDeviation="2"/>
<feColorMatrix type="matrix" values="0 0 0 0 0 0 0 0 0 0 0 0 0 0 0 0 0 0 0.25 0"/>
<feBlend mode="normal" in2="BackgroundImageFix" result="effect1_dropShadow"/>
<feBlend mode="normal" in="SourceGraphic" in2="effect1_dropShadow" result="shape"/>
</filter>
</defs>
</svg>
